M48
;Layer_Color=9474304
;FILE_FORMAT=2:5
INCH,LZ
;TYPE=PLATED
T1F00S00C0.01500
T2F00S00C0.02756
T3F00S00C0.02800
T4F00S00C0.03000
T5F00S00C0.03150
T6F00S00C0.03346
T7F00S00C0.03500
T8F00S00C0.03543
T9F00S00C0.03600
T10F00S00C0.04900
T11F00S00C0.08268
T12F00S00C0.12598
%
T01
X0300031Y04344
T02
X0228189Y0511811
X0248189
X0320709Y0480315
X0340709
X0163543Y057874
X0143543
X0072835Y054937
Y052937
X0265591Y0574803
X0285591
T03
X0268Y0190945
X02621Y04233
X0238189Y0413386
X0288622Y0413386
X03109Y04854
X03232Y04738
X0282Y05048
X02191Y05144
X01581Y05193
X0150808Y0515198
X0151575Y0459646
X01379Y04593
X01525Y04373
X01665Y04389
X0167323Y0449803
X01804Y0434
X01565Y04132
X01685Y03698
X0169291Y0534449
X0187008Y0537402
X0269Y05461
X0372047Y0543307
T04
X0242126Y0389764
X0251969
X0261811
Y0399606
X0251969
X0242126
X0281496
Y0389764
T05
X0232284Y0574803
X0251969
X030315Y0572835
Y055315
Y0545276
Y0525591
T06
X0214567Y0475157
Y0505157
X0261811Y0511063
X0270622
X0297244
X0305118
Y0481063
X0297244
X0270622
X0261811
X0204725Y0475157
X0195866Y0475157
Y0505158
X0204725Y0505157
X0139764Y0514528
X0168071Y0405512
X0198071
X0139764Y0544528
T07
X0280031Y0425197
X0290031
X0300031
X0310031
X0320031
X0330031
Y0465197
X0320031
X0310031
X0300031
X0290031
X0280031
X020748
X019748
X018748
X017748
X016748
X015748
Y0425197
X016748
X017748
X018748
X019748
X020748
X0085433
X0075433
X0065433
Y0465197
X0075433
X0085433
X0055433
X0045433
X0035433
Y0425197
X0045433
X0055433
T08
X0228346Y048622
Y049622
X0248032
Y048622
X0340551Y0497835
X0186024Y0480315
X0176024
X0166024
X0156024
X0146024
X0136024
X0121299Y0488622
Y0498622
Y0508622
Y0518622
X0091299
Y0508622
Y0498622
Y0488622
X0110236Y0405709
Y0377756
X0080709Y0393701
X0068898
X0057087
X0026Y0393701
X0016
X002437Y0486654
Y0496654
Y0506654
Y0516654
X005437
Y0506654
Y0496654
Y0486654
Y0526654
Y0536654
Y0546654
Y0556654
X002437
Y0546654
Y0536654
Y0526654
X0091299Y0528622
Y0538622
Y0548622
Y0558622
X0121299
Y0548622
Y0538622
Y0528622
X0153504Y0528307
X0163504
X0173504
X0183504
X0193504
X0203504
Y0558307
X0193504
X0183504
X0173504
X0163504
X0153504
X0213504
X0223504
X0233504
X0243504
X0253504
X0263504
X0273504
X0283504
Y0528307
X0273504
X0263504
X0253504
X0243504
X0233504
X0223504
X0213504
X0340551Y0525787
T09
X0316772Y0501968
X0326772Y0495468
Y0508468
T10
X0038492Y0023465
Y0043465
X0088492
X0101484
Y0023465
X0088492
X0151484
X0164476
Y0043465
X0151484
X0214476
X0227469
Y0023465
X0214476
X0277469
X0290461
Y0043465
X0277469
X0340461
Y0023465
Y0086457
Y0106457
Y0149449
Y0169449
Y0212441
X0290461
X0277469
Y0169449
X0290461
Y0149449
X0277469
Y0106457
X0290461
Y0086457
X0277469
X0227469
X0214476
Y0106457
X0227469
Y0149449
X0214476
Y0169449
X0227469
Y0212441
X0214476
X0164476
X0151484
Y0169449
X0164476
Y0149449
X0151484
Y0106457
X0164476
Y0086457
X0151484
X0101484
X0088492
Y0106457
X0101484
Y0149449
X0088492
Y0169449
X0101484
Y0212441
X0088492
X0038492
Y0169449
Y0149449
Y0106457
Y0086457
Y0232441
Y0275433
Y0295433
Y0338425
Y0358425
X0088492
X0101484
Y0338425
X0088492
Y0295433
X0101484
Y0275433
X0088492
Y0232441
X0101484
X0151484
X0164476
Y0275433
X0151484
Y0295433
X0164476
Y0338425
X0151484
Y0358425
X0164476
X0214476
X0227469
Y0338425
X0214476
Y0295433
X0227469
Y0275433
X0214476
Y0232441
X0227469
X0277469
X0290461
Y0275433
X0277469
Y0295433
X0290461
Y0338425
X0277469
Y0358425
X0290461
X0340461
Y0338425
Y0295433
Y0275433
Y0232441
T11
X009252Y0393701
X0045276
T12
X0009843Y0025591
X0358268
X0009843Y0299213
X0358268
X0009843Y0576772
X0358268
M30
