%FSLAX25Y25*%
%MOIN*%
G70*
G01*
G75*
G04 Layer_Color=231054*
%ADD10R,0.08858X0.01969*%
%ADD11R,0.13780X0.08071*%
%ADD12R,0.15748X0.08071*%
%ADD13C,0.01000*%
%ADD14C,0.04000*%
%ADD15C,0.01500*%
%ADD16C,0.02000*%
%ADD17C,0.02500*%
%ADD18C,0.00600*%
%ADD19C,0.05512*%
%ADD20C,0.05906*%
%ADD21R,0.05906X0.05906*%
%ADD22C,0.19685*%
%ADD23C,0.06000*%
%ADD24C,0.05315*%
%ADD25R,0.05315X0.05315*%
%ADD26R,0.05906X0.05906*%
%ADD27C,0.05906*%
%ADD28C,0.08000*%
%ADD29R,0.05906X0.05906*%
G04:AMPARAMS|DCode=30|XSize=47.24mil|YSize=80mil|CornerRadius=11.81mil|HoleSize=0mil|Usage=FLASHONLY|Rotation=0.000|XOffset=0mil|YOffset=0mil|HoleType=Round|Shape=RoundedRectangle|*
%AMROUNDEDRECTD30*
21,1,0.04724,0.05638,0,0,0.0*
21,1,0.02362,0.08000,0,0,0.0*
1,1,0.02362,0.01181,-0.02819*
1,1,0.02362,-0.01181,-0.02819*
1,1,0.02362,-0.01181,0.02819*
1,1,0.02362,0.01181,0.02819*
%
%ADD30ROUNDEDRECTD30*%
%ADD31R,0.05315X0.05315*%
%ADD32C,0.04724*%
%ADD33R,0.06000X0.04724*%
%ADD34O,0.06000X0.04724*%
%ADD35O,0.10236X0.15748*%
%ADD36O,0.07874X0.06000*%
%ADD37C,0.05000*%
%ADD38C,0.03000*%
%ADD39C,0.00800*%
%ADD40C,0.00787*%
%ADD41C,0.00984*%
%ADD42C,0.00500*%
%ADD43C,0.00984*%
%ADD44C,0.02362*%
%ADD45C,0.03386*%
%ADD46C,0.03000*%
%ADD47C,0.00799*%
%ADD48R,0.07480X0.03150*%
D13*
X230315Y401575D02*
X238189D01*
X285433D02*
X291339D01*
X285433Y387795D02*
X291339D01*
Y401575D01*
X265748D02*
X277559D01*
X255906D02*
X257874D01*
X246063D02*
X248031D01*
X230315Y387795D02*
Y401575D01*
Y387795D02*
X238189D01*
X246063D02*
X248031D01*
X255906D02*
X257874D01*
X265748D02*
X277559D01*
X293961Y372425D02*
X336961D01*
X293961Y324425D02*
Y372425D01*
X336961Y324425D02*
Y372425D01*
X293587Y324425D02*
X337961D01*
X230594D02*
X274969D01*
X273969D02*
Y372425D01*
X230969Y324425D02*
Y372425D01*
X273969D01*
X167976D02*
X210976D01*
X167976Y324425D02*
Y372425D01*
X210976Y324425D02*
Y372425D01*
X167602Y324425D02*
X211976D01*
X104610D02*
X148984D01*
X147984D02*
Y372425D01*
X104984Y324425D02*
Y372425D01*
X147984D01*
X41992D02*
X84992D01*
X41992Y324425D02*
Y372425D01*
X84992Y324425D02*
Y372425D01*
X41618Y324425D02*
X85992D01*
X984Y420197D02*
Y469197D01*
X120433D01*
Y420197D02*
Y469197D01*
X1433Y420197D02*
X120331D01*
X123031D02*
Y469197D01*
X242480D01*
Y420197D02*
Y469197D01*
X123480Y420197D02*
X242378D01*
X245583D02*
Y469197D01*
X365031D01*
Y420197D02*
Y469197D01*
X246031Y420197D02*
X364929D01*
X41618Y9465D02*
X85992D01*
X84992D02*
Y57465D01*
X41992Y9465D02*
Y57465D01*
X84992D01*
X104984D02*
X147984D01*
X104984Y9465D02*
Y57465D01*
X147984Y9465D02*
Y57465D01*
X104610Y9465D02*
X148984D01*
X167602D02*
X211976D01*
X210976D02*
Y57465D01*
X167976Y9465D02*
Y57465D01*
X210976D01*
X230969D02*
X273969D01*
X230969Y9465D02*
Y57465D01*
X273969Y9465D02*
Y57465D01*
X230594Y9465D02*
X274969D01*
X293587D02*
X337961D01*
X336961D02*
Y57465D01*
X293961Y9465D02*
Y57465D01*
X336961D01*
X41992Y120457D02*
X84992D01*
X41992Y72457D02*
Y120457D01*
X84992Y72457D02*
Y120457D01*
X41618Y72457D02*
X85992D01*
X104610D02*
X148984D01*
X147984D02*
Y120457D01*
X104984Y72457D02*
Y120457D01*
X147984D01*
X167976D02*
X210976D01*
X167976Y72457D02*
Y120457D01*
X210976Y72457D02*
Y120457D01*
X167602Y72457D02*
X211976D01*
X230594D02*
X274969D01*
X273969D02*
Y120457D01*
X230969Y72457D02*
Y120457D01*
X273969D01*
X293961D02*
X336961D01*
X293961Y72457D02*
Y120457D01*
X336961Y72457D02*
Y120457D01*
X293587Y72457D02*
X337961D01*
X41618Y135449D02*
X85992D01*
X84992D02*
Y183449D01*
X41992Y135449D02*
Y183449D01*
X84992D01*
X104984D02*
X147984D01*
X104984Y135449D02*
Y183449D01*
X147984Y135449D02*
Y183449D01*
X104610Y135449D02*
X148984D01*
X167602D02*
X211976D01*
X210976D02*
Y183449D01*
X167976Y135449D02*
Y183449D01*
X210976D01*
X230969D02*
X273969D01*
X230969Y135449D02*
Y183449D01*
X273969Y135449D02*
Y183449D01*
X230594Y135449D02*
X274969D01*
X293587D02*
X337961D01*
X336961D02*
Y183449D01*
X293961Y135449D02*
Y183449D01*
X336961D01*
X41992Y246441D02*
X84992D01*
X41992Y198441D02*
Y246441D01*
X84992Y198441D02*
Y246441D01*
X41618Y198441D02*
X85992D01*
X104610D02*
X148984D01*
X147984D02*
Y246441D01*
X104984Y198441D02*
Y246441D01*
X147984D01*
X167976D02*
X210976D01*
X167976Y198441D02*
Y246441D01*
X210976Y198441D02*
Y246441D01*
X167602Y198441D02*
X211976D01*
X230594D02*
X274969D01*
X273969D02*
Y246441D01*
X230969Y198441D02*
Y246441D01*
X273969D01*
X293961D02*
X336961D01*
X293961Y198441D02*
Y246441D01*
X336961Y198441D02*
Y246441D01*
X293587Y198441D02*
X337961D01*
X41618Y261433D02*
X85992D01*
X84992D02*
Y309433D01*
X41992Y261433D02*
Y309433D01*
X84992D01*
X104984D02*
X147984D01*
X104984Y261433D02*
Y309433D01*
X147984Y261433D02*
Y309433D01*
X104610Y261433D02*
X148984D01*
X167602D02*
X211976D01*
X210976D02*
Y309433D01*
X167976Y261433D02*
Y309433D01*
X210976D01*
X230969D02*
X273969D01*
X230969Y261433D02*
Y309433D01*
X273969Y261433D02*
Y309433D01*
X230594Y261433D02*
X274969D01*
X293587D02*
X337961D01*
X336961D02*
Y309433D01*
X293961Y261433D02*
Y309433D01*
X336961D01*
X78740Y387795D02*
X80709D01*
X57087D02*
X59055D01*
Y383858D02*
X62992Y387795D01*
X68898D01*
X94488Y381890D02*
Y385827D01*
X43307Y381890D02*
X94488D01*
X43307D02*
Y385827D01*
Y401575D02*
Y405512D01*
X94488D01*
Y401575D02*
Y405512D01*
X188976Y516000D02*
Y521998D01*
X191975D01*
X192975Y520998D01*
Y518999D01*
X191975Y517999D01*
X188976D01*
X190976D02*
X192975Y516000D01*
X194974Y517000D02*
X195974Y516000D01*
X197974D01*
X198973Y517000D01*
Y520998D01*
X197974Y521998D01*
X195974D01*
X194974Y520998D01*
Y519999D01*
X195974Y518999D01*
X198973D01*
X100394Y572927D02*
Y567929D01*
X101393Y566929D01*
X103393D01*
X104392Y567929D01*
Y572927D01*
X109391Y566929D02*
Y572927D01*
X106392Y569928D01*
X110390D01*
X35433Y570959D02*
Y565960D01*
X36433Y564961D01*
X38432D01*
X39432Y565960D01*
Y570959D01*
X41431Y569959D02*
X42431Y570959D01*
X44430D01*
X45430Y569959D01*
Y568959D01*
X44430Y567960D01*
X43431D01*
X44430D01*
X45430Y566960D01*
Y565960D01*
X44430Y564961D01*
X42431D01*
X41431Y565960D01*
X200000Y509700D02*
Y515698D01*
X202999D01*
X203999Y514698D01*
Y512699D01*
X202999Y511699D01*
X200000D01*
X201999D02*
X203999Y509700D01*
X205998Y514698D02*
X206998Y515698D01*
X208997D01*
X209997Y514698D01*
Y513699D01*
X208997Y512699D01*
X209997Y511699D01*
Y510700D01*
X208997Y509700D01*
X206998D01*
X205998Y510700D01*
Y511699D01*
X206998Y512699D01*
X205998Y513699D01*
Y514698D01*
X206998Y512699D02*
X208997D01*
X208000Y517019D02*
Y523017D01*
X210999D01*
X211999Y522017D01*
Y520018D01*
X210999Y519018D01*
X208000D01*
X209999D02*
X211999Y517019D01*
X213998Y523017D02*
X217997D01*
Y522017D01*
X213998Y518019D01*
Y517019D01*
X179134Y409449D02*
Y415447D01*
X182133D01*
X183133Y414447D01*
Y412448D01*
X182133Y411448D01*
X179134D01*
X181133D02*
X183133Y409449D01*
X189131Y415447D02*
X187131Y414447D01*
X185132Y412448D01*
Y410449D01*
X186132Y409449D01*
X188131D01*
X189131Y410449D01*
Y411448D01*
X188131Y412448D01*
X185132D01*
X257874Y515748D02*
Y521746D01*
X260873D01*
X261873Y520746D01*
Y518747D01*
X260873Y517747D01*
X257874D01*
X259873D02*
X261873Y515748D01*
X267871Y521746D02*
X263872D01*
Y518747D01*
X265871Y519747D01*
X266871D01*
X267871Y518747D01*
Y516748D01*
X266871Y515748D01*
X264872D01*
X263872Y516748D01*
X271654Y515748D02*
Y521746D01*
X274653D01*
X275652Y520746D01*
Y518747D01*
X274653Y517747D01*
X271654D01*
X273653D02*
X275652Y515748D01*
X280651D02*
Y521746D01*
X277652Y518747D01*
X281650D01*
X301181Y515748D02*
Y521746D01*
X304180D01*
X305180Y520746D01*
Y518747D01*
X304180Y517747D01*
X301181D01*
X303181D02*
X305180Y515748D01*
X307179Y520746D02*
X308179Y521746D01*
X310178D01*
X311178Y520746D01*
Y519747D01*
X310178Y518747D01*
X309178D01*
X310178D01*
X311178Y517747D01*
Y516748D01*
X310178Y515748D01*
X308179D01*
X307179Y516748D01*
X281496Y505905D02*
Y511904D01*
X284495D01*
X285495Y510904D01*
Y508905D01*
X284495Y507905D01*
X281496D01*
X283495D02*
X285495Y505905D01*
X291493D02*
X287494D01*
X291493Y509904D01*
Y510904D01*
X290493Y511904D01*
X288494D01*
X287494Y510904D01*
X135638Y514673D02*
X133639D01*
X134638D01*
Y509675D01*
X133639Y508675D01*
X132639D01*
X131639Y509675D01*
X141636Y508675D02*
X137637D01*
X141636Y512674D01*
Y513673D01*
X140637Y514673D01*
X138637D01*
X137637Y513673D01*
X11600Y402137D02*
Y408135D01*
X14599D01*
X15599Y407135D01*
Y405136D01*
X14599Y404136D01*
X11600D01*
X17598Y402137D02*
X19597D01*
X18598D01*
Y408135D01*
X17598Y407135D01*
X118018Y397638D02*
X124016D01*
Y400637D01*
X123016Y401637D01*
X119017D01*
X118018Y400637D01*
Y397638D01*
X124016Y407635D02*
Y403636D01*
X120017Y407635D01*
X119017D01*
X118018Y406635D01*
Y404635D01*
X119017Y403636D01*
X346457Y502061D02*
Y496063D01*
X349456D01*
X350455Y497063D01*
Y501061D01*
X349456Y502061D01*
X346457D01*
X352455Y496063D02*
X354454D01*
X353454D01*
Y502061D01*
X352455Y501061D01*
X312992Y529620D02*
Y524622D01*
X313992Y523622D01*
X315991D01*
X316991Y524622D01*
Y529620D01*
X318990Y523622D02*
X320989D01*
X319990D01*
Y529620D01*
X318990Y528620D01*
X234252Y513872D02*
Y512872D01*
X236251Y510873D01*
X238251Y512872D01*
Y513872D01*
X236251Y510873D02*
Y507874D01*
X240250D02*
X242249D01*
X241250D01*
Y513872D01*
X240250Y512872D01*
X372109Y505998D02*
X370110D01*
X371109D01*
Y501000D01*
X370110Y500000D01*
X369110D01*
X368110Y501000D01*
X374108Y500000D02*
X376108D01*
X375108D01*
Y505998D01*
X374108Y504998D01*
X69985Y565283D02*
X68986Y566283D01*
X66986D01*
X65987Y565283D01*
Y561285D01*
X66986Y560285D01*
X68986D01*
X69985Y561285D01*
X71985D02*
X72984Y560285D01*
X74984D01*
X75983Y561285D01*
Y565283D01*
X74984Y566283D01*
X72984D01*
X71985Y565283D01*
Y564284D01*
X72984Y563284D01*
X75983D01*
X228408Y477439D02*
X227409Y478439D01*
X225409D01*
X224410Y477439D01*
Y473441D01*
X225409Y472441D01*
X227409D01*
X228408Y473441D01*
X230408Y477439D02*
X231407Y478439D01*
X233406D01*
X234406Y477439D01*
Y476440D01*
X233406Y475440D01*
X234406Y474440D01*
Y473441D01*
X233406Y472441D01*
X231407D01*
X230408Y473441D01*
Y474440D01*
X231407Y475440D01*
X230408Y476440D01*
Y477439D01*
X231407Y475440D02*
X233406D01*
X248093Y477439D02*
X247094Y478439D01*
X245094D01*
X244094Y477439D01*
Y473441D01*
X245094Y472441D01*
X247094D01*
X248093Y473441D01*
X250093Y478439D02*
X254091D01*
Y477439D01*
X250093Y473441D01*
Y472441D01*
X220534Y579802D02*
X219534Y580801D01*
X217535D01*
X216535Y579802D01*
Y575803D01*
X217535Y574803D01*
X219534D01*
X220534Y575803D01*
X226532Y580801D02*
X224533Y579802D01*
X222533Y577802D01*
Y575803D01*
X223533Y574803D01*
X225533D01*
X226532Y575803D01*
Y576802D01*
X225533Y577802D01*
X222533D01*
X360298Y483345D02*
X359298Y484344D01*
X357299D01*
X356299Y483345D01*
Y479346D01*
X357299Y478346D01*
X359298D01*
X360298Y479346D01*
X366296Y484344D02*
X362297D01*
Y481346D01*
X364297Y482345D01*
X365296D01*
X366296Y481346D01*
Y479346D01*
X365296Y478346D01*
X363297D01*
X362297Y479346D01*
X315022Y546337D02*
X314023Y547337D01*
X312023D01*
X311024Y546337D01*
Y542338D01*
X312023Y541339D01*
X314023D01*
X315022Y542338D01*
X320021Y541339D02*
Y547337D01*
X317022Y544338D01*
X321020D01*
X124077Y585707D02*
X123078Y586707D01*
X121078D01*
X120079Y585707D01*
Y581708D01*
X121078Y580709D01*
X123078D01*
X124077Y581708D01*
X126077Y585707D02*
X127076Y586707D01*
X129076D01*
X130076Y585707D01*
Y584707D01*
X129076Y583708D01*
X128076D01*
X129076D01*
X130076Y582708D01*
Y581708D01*
X129076Y580709D01*
X127076D01*
X126077Y581708D01*
X273684Y577833D02*
X272684Y578833D01*
X270685D01*
X269685Y577833D01*
Y573834D01*
X270685Y572835D01*
X272684D01*
X273684Y573834D01*
X279682Y572835D02*
X275683D01*
X279682Y576833D01*
Y577833D01*
X278682Y578833D01*
X276683D01*
X275683Y577833D01*
X316991Y562085D02*
X315991Y563085D01*
X313992D01*
X312992Y562085D01*
Y558086D01*
X313992Y557087D01*
X315991D01*
X316991Y558086D01*
X318990Y557087D02*
X320989D01*
X319990D01*
Y563085D01*
X318990Y562085D01*
X157480Y547337D02*
X159480D01*
X158480D01*
Y541339D01*
X157480D01*
X159480D01*
X166477Y546337D02*
X165478Y547337D01*
X163478D01*
X162479Y546337D01*
Y542338D01*
X163478Y541339D01*
X165478D01*
X166477Y542338D01*
X168477Y541339D02*
X170476D01*
X169476D01*
Y547337D01*
X168477Y546337D01*
X133858Y549213D02*
Y555211D01*
X136857D01*
X137857Y554211D01*
Y552212D01*
X136857Y551212D01*
X133858D01*
X135858D02*
X137857Y549213D01*
X139856D02*
X141856D01*
X140856D01*
Y555211D01*
X139856Y554211D01*
X346457Y417415D02*
Y411417D01*
X349456D01*
X350455Y412417D01*
Y416416D01*
X349456Y417415D01*
X346457D01*
X352455D02*
X354454D01*
X353454D01*
Y411417D01*
X352455D01*
X354454D01*
X361452Y416416D02*
X360452Y417415D01*
X358453D01*
X357453Y416416D01*
Y415416D01*
X358453Y414416D01*
X360452D01*
X361452Y413417D01*
Y412417D01*
X360452Y411417D01*
X358453D01*
X357453Y412417D01*
X363451Y416416D02*
X364451Y417415D01*
X366450D01*
X367450Y416416D01*
Y415416D01*
X366450Y414416D01*
X365451D01*
X366450D01*
X367450Y413417D01*
Y412417D01*
X366450Y411417D01*
X364451D01*
X363451Y412417D01*
X125984Y417415D02*
Y411417D01*
X128983D01*
X129983Y412417D01*
Y416416D01*
X128983Y417415D01*
X125984D01*
X131982D02*
X133982D01*
X132982D01*
Y411417D01*
X131982D01*
X133982D01*
X140979Y416416D02*
X139980Y417415D01*
X137980D01*
X136981Y416416D01*
Y415416D01*
X137980Y414416D01*
X139980D01*
X140979Y413417D01*
Y412417D01*
X139980Y411417D01*
X137980D01*
X136981Y412417D01*
X146977Y411417D02*
X142979D01*
X146977Y415416D01*
Y416416D01*
X145978Y417415D01*
X143978D01*
X142979Y416416D01*
X3937Y417415D02*
Y411417D01*
X6936D01*
X7936Y412417D01*
Y416416D01*
X6936Y417415D01*
X3937D01*
X9935D02*
X11934D01*
X10935D01*
Y411417D01*
X9935D01*
X11934D01*
X18932Y416416D02*
X17932Y417415D01*
X15933D01*
X14933Y416416D01*
Y415416D01*
X15933Y414416D01*
X17932D01*
X18932Y413417D01*
Y412417D01*
X17932Y411417D01*
X15933D01*
X14933Y412417D01*
X20932Y411417D02*
X22931D01*
X21931D01*
Y417415D01*
X20932Y416416D01*
X364173Y56000D02*
X360174D01*
X358175Y57999D01*
X360174Y59999D01*
X364173D01*
X361174D01*
Y56000D01*
X358175Y61998D02*
X362174D01*
X364173Y63997D01*
X362174Y65997D01*
X358175D01*
Y71995D02*
Y67996D01*
X361174D01*
Y69995D01*
Y67996D01*
X364173D01*
Y83991D02*
Y79992D01*
X360174Y83991D01*
X359175D01*
X358175Y82991D01*
Y80992D01*
X359175Y79992D01*
Y85990D02*
X358175Y86990D01*
Y88989D01*
X359175Y89989D01*
X363174D01*
X364173Y88989D01*
Y86990D01*
X363174Y85990D01*
X359175D01*
X364173Y91988D02*
Y93988D01*
Y92988D01*
X358175D01*
X359175Y91988D01*
X364173Y99986D02*
X358175D01*
X361174Y96987D01*
Y100986D01*
X11718Y316929D02*
X17717D01*
Y319928D01*
X16717Y320928D01*
X15717D01*
X14717Y319928D01*
Y316929D01*
Y319928D01*
X13718Y320928D01*
X12718D01*
X11718Y319928D01*
Y316929D01*
X13718Y323927D02*
Y325926D01*
X14717Y326926D01*
X17717D01*
Y323927D01*
X16717Y322927D01*
X15717Y323927D01*
Y326926D01*
X12718Y329925D02*
X13718D01*
Y328925D01*
Y330925D01*
Y329925D01*
X16717D01*
X17717Y330925D01*
X12718Y334923D02*
X13718D01*
Y333924D01*
Y335923D01*
Y334923D01*
X16717D01*
X17717Y335923D01*
Y341921D02*
Y339922D01*
X16717Y338922D01*
X14717D01*
X13718Y339922D01*
Y341921D01*
X14717Y342921D01*
X15717D01*
Y338922D01*
X13718Y344920D02*
X17717D01*
X15717D01*
X14717Y345920D01*
X13718Y346919D01*
Y347919D01*
Y350918D02*
X16717D01*
X17717Y351918D01*
Y354917D01*
X18716D01*
X19716Y353917D01*
Y352918D01*
X17717Y354917D02*
X13718D01*
X77802Y415447D02*
X75803D01*
X74803Y414447D01*
Y410449D01*
X75803Y409449D01*
X77802D01*
X78802Y410449D01*
Y414447D01*
X77802Y415447D01*
X80801Y409449D02*
Y415447D01*
X84800Y409449D01*
Y415447D01*
X52212D02*
X50212D01*
X49213Y414447D01*
Y410449D01*
X50212Y409449D01*
X52212D01*
X53211Y410449D01*
Y414447D01*
X52212Y415447D01*
X59209D02*
X55211D01*
Y412448D01*
X57210D01*
X55211D01*
Y409449D01*
X65207Y415447D02*
X61209D01*
Y412448D01*
X63208D01*
X61209D01*
Y409449D01*
X212000Y391732D02*
Y397730D01*
X214999D01*
X215999Y396731D01*
Y394731D01*
X214999Y393732D01*
X212000D01*
X213999D02*
X215999Y391732D01*
X218998Y395731D02*
X220997D01*
X221997Y394731D01*
Y391732D01*
X218998D01*
X217998Y392732D01*
X218998Y393732D01*
X221997D01*
X227995Y397730D02*
Y391732D01*
X224996D01*
X223996Y392732D01*
Y394731D01*
X224996Y395731D01*
X227995D01*
X297244Y397998D02*
Y392000D01*
X300243D01*
X301243Y393000D01*
Y396998D01*
X300243Y397998D01*
X297244D01*
X306241Y392000D02*
X304242D01*
X303242Y393000D01*
Y394999D01*
X304242Y395999D01*
X306241D01*
X307241Y394999D01*
Y393999D01*
X303242D01*
X311240Y390001D02*
X312239D01*
X313239Y391000D01*
Y395999D01*
X310240D01*
X309240Y394999D01*
Y393000D01*
X310240Y392000D01*
X313239D01*
X255967Y410998D02*
X254967Y411998D01*
X252968D01*
X251969Y410998D01*
Y407000D01*
X252968Y406000D01*
X254967D01*
X255967Y407000D01*
Y408999D01*
X253968D01*
X257967Y409999D02*
Y406000D01*
Y407999D01*
X258966Y408999D01*
X259966Y409999D01*
X260966D01*
X264964D02*
X266964D01*
X267963Y408999D01*
Y406000D01*
X264964D01*
X263965Y407000D01*
X264964Y407999D01*
X267963D01*
X273961Y411998D02*
Y406000D01*
X270962D01*
X269963Y407000D01*
Y408999D01*
X270962Y409999D01*
X273961D01*
X63054Y319998D02*
X59055D01*
Y316999D01*
X61054D01*
X59055D01*
Y314000D01*
X60000Y257967D02*
Y251969D01*
Y253968D01*
X63999Y257967D01*
X61000Y254967D01*
X63999Y251969D01*
D18*
X138665Y656729D02*
X145330D01*
X141998D01*
Y646732D01*
X150328D02*
X153661D01*
X155327Y648398D01*
Y651731D01*
X153661Y653397D01*
X150328D01*
X148662Y651731D01*
Y648398D01*
X150328Y646732D01*
X158659Y643400D02*
Y653397D01*
X163657D01*
X165323Y651731D01*
Y648398D01*
X163657Y646732D01*
X158659D01*
X183651Y656729D02*
X180319D01*
X178652Y655063D01*
Y648398D01*
X180319Y646732D01*
X183651D01*
X185317Y648398D01*
Y655063D01*
X183651Y656729D01*
X188649Y653397D02*
X191981Y646732D01*
X195314Y653397D01*
X203644Y646732D02*
X200312D01*
X198646Y648398D01*
Y651731D01*
X200312Y653397D01*
X203644D01*
X205311Y651731D01*
Y650065D01*
X198646D01*
X208643Y653397D02*
Y646732D01*
Y650065D01*
X210309Y651731D01*
X211975Y653397D01*
X213641D01*
X218639Y646732D02*
X221972D01*
X220306D01*
Y656729D01*
X218639D01*
X228636Y653397D02*
X231968D01*
X233635Y651731D01*
Y646732D01*
X228636D01*
X226970Y648398D01*
X228636Y650065D01*
X233635D01*
X236967Y653397D02*
Y648398D01*
X238633Y646732D01*
X243631D01*
Y645066D01*
X241965Y643400D01*
X240299D01*
X243631Y646732D02*
Y653397D01*
D40*
X108799Y483071D02*
G03*
X103799Y483071I-2500J0D01*
G01*
X41870Y481102D02*
G03*
X36870Y481102I-2500J0D01*
G01*
X306424Y555831D02*
G03*
X307382Y569632I-3274J7161D01*
G01*
X298917D02*
G03*
X299875Y555831I4232J-6640D01*
G01*
X299875Y542594D02*
G03*
X298917Y528793I3274J-7161D01*
G01*
X307382D02*
G03*
X306424Y542594I-4232J6640D01*
G01*
X249287Y578077D02*
G03*
X235486Y579036I-7161J-3274D01*
G01*
Y570571D02*
G03*
X249287Y571529I6640J4232D01*
G01*
X147244Y540807D02*
G03*
X147244Y545807I0J2500D01*
G01*
X195866Y500157D02*
Y501057D01*
Y479257D02*
Y480158D01*
Y500157D02*
X198866D01*
Y480158D02*
Y500157D01*
X192866Y480158D02*
X198866D01*
X192866D02*
Y500157D01*
X195866D01*
X95866Y483071D02*
Y564173D01*
X116732Y483071D02*
Y564173D01*
X95866D02*
X116732D01*
X95866Y483071D02*
X103799D01*
X108799D02*
X116732D01*
X28937Y481102D02*
Y562205D01*
X49803Y481102D02*
Y562205D01*
X28937D02*
X49803D01*
X28937Y481102D02*
X36870D01*
X41870D02*
X49803D01*
X139764Y519528D02*
X142764D01*
Y539528D01*
X136764D02*
X142764D01*
X136764Y519528D02*
Y539528D01*
Y519528D02*
X139764D01*
Y539528D02*
Y540428D01*
Y518628D02*
Y519528D01*
X336811Y519488D02*
X344291D01*
Y504134D02*
Y519488D01*
X336811Y504134D02*
Y519488D01*
X267622Y506063D02*
X270622D01*
X267622Y486063D02*
Y506063D01*
Y486063D02*
X273622D01*
Y506063D01*
X270622D02*
X273622D01*
X270622Y485163D02*
Y486063D01*
Y506063D02*
Y506963D01*
X258811Y506063D02*
X261811D01*
X258811Y486063D02*
Y506063D01*
Y486063D02*
X264811D01*
Y506063D01*
X261811D02*
X264811D01*
X261811Y485163D02*
Y486063D01*
Y506063D02*
Y506963D01*
X294244Y506063D02*
X297244D01*
X294244Y486063D02*
Y506063D01*
Y486063D02*
X300244D01*
Y506063D01*
X297244D02*
X300244D01*
X297244Y485163D02*
Y486063D01*
Y506063D02*
Y506963D01*
X302118Y506063D02*
X305118D01*
X302118Y486063D02*
Y506063D01*
Y486063D02*
X308118D01*
Y506063D01*
X305118D02*
X308118D01*
X305118Y485163D02*
Y486063D01*
Y506063D02*
Y506963D01*
X211567Y500157D02*
X214567D01*
X211567Y480157D02*
Y500157D01*
Y480157D02*
X217567D01*
Y500157D01*
X214567D02*
X217567D01*
X214567Y479257D02*
Y480157D01*
Y500157D02*
Y501057D01*
X193071Y405512D02*
Y408512D01*
X173071D02*
X193071D01*
X173071Y402512D02*
Y408512D01*
Y402512D02*
X193071D01*
Y405512D01*
X172171D02*
X173071D01*
X193071D02*
X193971D01*
X201725Y500157D02*
X204725D01*
X201725Y480157D02*
Y500157D01*
Y480157D02*
X207724D01*
Y500157D01*
X204725D02*
X207724D01*
X204725Y479257D02*
Y480157D01*
Y500157D02*
Y501057D01*
X233858Y480709D02*
Y501732D01*
X222835Y480709D02*
Y501732D01*
X233858D01*
X222835Y480709D02*
X233858D01*
X253543D02*
Y501732D01*
X242520Y480709D02*
Y501732D01*
X253543D01*
X242520Y480709D02*
X253543D01*
X131024Y485315D02*
X191024D01*
X189357D02*
X191024Y486982D01*
X134357Y490315D02*
Y503648D01*
X136024Y505315D01*
X137690Y503648D01*
Y490315D02*
Y503648D01*
X144357Y490315D02*
Y503648D01*
X146024Y505315D01*
X147690Y503648D01*
Y490315D02*
Y503648D01*
X154357Y490315D02*
Y503648D01*
X156024Y505315D01*
X157690Y503648D01*
Y490315D02*
Y503648D01*
X164357Y490315D02*
Y503648D01*
X166024Y505315D01*
X167690Y503648D01*
Y490315D02*
Y503648D01*
X174357Y490315D02*
Y503648D01*
X176024Y505315D01*
X177690Y503648D01*
Y490315D02*
Y503648D01*
X184357Y490315D02*
Y503648D01*
X186024Y505315D01*
X187690Y503648D01*
Y490315D02*
Y503648D01*
X131024Y485315D02*
Y490315D01*
X191024D01*
Y485315D02*
Y490315D01*
X106496Y384055D02*
X113976D01*
X106496D02*
Y399409D01*
X113976Y384055D02*
Y399409D01*
X11000Y388701D02*
Y398701D01*
X31000D01*
Y388701D02*
Y398701D01*
X11000Y388701D02*
X31000D01*
X313209Y472815D02*
Y487815D01*
X348209D01*
Y472815D02*
Y487815D01*
X313209Y472815D02*
X348209D01*
X346799Y511802D02*
Y562202D01*
Y511602D02*
X377599D01*
X346899Y562902D02*
X378499D01*
X171043Y571240D02*
Y586240D01*
X136043Y571240D02*
X171043D01*
X136043D02*
Y586240D01*
X171043D01*
X147244Y532874D02*
X289764D01*
X147244Y553740D02*
X289764D01*
X147244Y532874D02*
Y540807D01*
Y545807D02*
Y553740D01*
X289764Y532874D02*
Y553740D01*
X258091Y567303D02*
Y582303D01*
X293091D01*
Y567303D02*
Y582303D01*
X258091Y567303D02*
X293091D01*
X255689Y504311D02*
Y519311D01*
X220689Y504311D02*
X255689D01*
X220689D02*
Y519311D01*
X255689D01*
X65335Y521870D02*
X80335D01*
X65335D02*
Y556870D01*
X80335D01*
Y521870D02*
Y556870D01*
D41*
X220768Y486221D02*
G03*
X220768Y486221I-492J0D01*
G01*
X240453D02*
G03*
X240453Y486221I-492J0D01*
G01*
X148878Y528307D02*
G03*
X148878Y528307I-492J0D01*
G01*
D42*
X332358Y510413D02*
G03*
X315281Y506627I-7086J-8445D01*
G01*
Y497310D02*
G03*
X332358Y493524I9991J4659D01*
G01*
X332357Y493524D02*
Y510413D01*
D43*
X349883Y546002D02*
G03*
X349883Y546002I-492J0D01*
G01*
D44*
X152362Y536811D02*
G03*
X152362Y536811I-1181J0D01*
G01*
D45*
X55193Y430957D02*
G03*
X55193Y430957I-669J0D01*
G01*
X27102Y430197D02*
G03*
X27102Y430197I-669J0D01*
G01*
X83102D02*
G03*
X83102Y430197I-669J0D01*
G01*
X111102Y429197D02*
G03*
X111102Y429197I-669J0D01*
G01*
X177240Y430957D02*
G03*
X177240Y430957I-669J0D01*
G01*
X149150Y430197D02*
G03*
X149150Y430197I-669J0D01*
G01*
X205150D02*
G03*
X205150Y430197I-669J0D01*
G01*
X233150Y429197D02*
G03*
X233150Y429197I-669J0D01*
G01*
X299791Y430957D02*
G03*
X299791Y430957I-669J0D01*
G01*
X271701Y430197D02*
G03*
X271701Y430197I-669J0D01*
G01*
X327701D02*
G03*
X327701Y430197I-669J0D01*
G01*
X355701Y429197D02*
G03*
X355701Y429197I-669J0D01*
G01*
D46*
X60935Y435476D02*
X62375Y443700D01*
X65862Y445919D02*
X77122D01*
X68196Y459380D02*
X79479D01*
X63462Y432458D02*
X74736D01*
X78181Y434699D02*
X79646Y442910D01*
X63310Y448924D02*
X64761Y457167D01*
X80559Y448143D02*
X82022Y456379D01*
X88431Y434508D02*
X89871Y442731D01*
X93358Y444951D02*
X104618D01*
X95692Y458411D02*
X106975D01*
X90958Y431490D02*
X102232D01*
X105677Y433730D02*
X107142Y441942D01*
X90806Y447955D02*
X92257Y456198D01*
X108055Y447175D02*
X109518Y455411D01*
X32376Y435476D02*
X33816Y443700D01*
X37303Y445919D02*
X48563D01*
X39637Y459380D02*
X50920D01*
X34903Y432458D02*
X46177D01*
X49622Y434699D02*
X51087Y442910D01*
X34751Y448924D02*
X36201Y457167D01*
X52000Y448143D02*
X53463Y456379D01*
X24378Y448175D02*
X25840Y456411D01*
X7129Y448955D02*
X8579Y457198D01*
X22000Y434730D02*
X23464Y442942D01*
X7281Y432490D02*
X18555D01*
X12014Y459411D02*
X23298D01*
X9842Y445882D02*
X21102D01*
X4754Y435508D02*
X6194Y443731D01*
X182983Y435476D02*
X184422Y443700D01*
X187909Y445919D02*
X199169D01*
X190243Y459380D02*
X201526D01*
X185509Y432458D02*
X196783D01*
X200228Y434699D02*
X201693Y442910D01*
X185357Y448924D02*
X186808Y457167D01*
X202607Y448143D02*
X204069Y456379D01*
X210479Y434508D02*
X211918Y442731D01*
X215405Y444951D02*
X226665D01*
X217739Y458411D02*
X229022D01*
X213005Y431490D02*
X224279D01*
X227724Y433730D02*
X229189Y441942D01*
X212853Y447955D02*
X214304Y456198D01*
X230103Y447175D02*
X231565Y455411D01*
X154424Y435476D02*
X155863Y443700D01*
X159350Y445919D02*
X170610D01*
X161684Y459380D02*
X172967D01*
X156950Y432458D02*
X168224D01*
X171669Y434699D02*
X173134Y442910D01*
X156798Y448924D02*
X158249Y457167D01*
X174048Y448143D02*
X175510Y456379D01*
X146425Y448175D02*
X147888Y456411D01*
X129176Y448955D02*
X130627Y457198D01*
X144047Y434730D02*
X145512Y442942D01*
X129328Y432490D02*
X140602D01*
X134062Y459411D02*
X145345D01*
X131890Y445882D02*
X143149D01*
X126801Y435508D02*
X128241Y443731D01*
X305534Y435476D02*
X306974Y443700D01*
X310461Y445919D02*
X321720D01*
X312794Y459380D02*
X324077D01*
X308061Y432458D02*
X319335D01*
X322779Y434699D02*
X324244Y442910D01*
X307908Y448924D02*
X309359Y457167D01*
X325158Y448143D02*
X326620Y456379D01*
X333030Y434508D02*
X334470Y442731D01*
X337957Y444951D02*
X349216D01*
X340290Y458411D02*
X351574D01*
X335557Y431490D02*
X346831D01*
X350276Y433730D02*
X351740Y441942D01*
X335404Y447955D02*
X336855Y456198D01*
X352654Y447175D02*
X354116Y455411D01*
X276975Y435476D02*
X278414Y443700D01*
X281901Y445919D02*
X293161D01*
X284235Y459380D02*
X295518D01*
X279501Y432458D02*
X290775D01*
X294220Y434699D02*
X295685Y442910D01*
X279349Y448924D02*
X280800Y457167D01*
X296599Y448143D02*
X298061Y456379D01*
X268977Y448175D02*
X270439Y456411D01*
X251727Y448955D02*
X253178Y457198D01*
X266598Y434730D02*
X268063Y442942D01*
X251879Y432490D02*
X263153D01*
X256613Y459411D02*
X267896D01*
X254441Y445882D02*
X265701D01*
X249353Y435508D02*
X250792Y443731D01*
D47*
X297244Y355512D02*
X299212D01*
X298228D01*
Y361415D01*
X297244Y360432D01*
X333896Y355425D02*
X329961D01*
X333896Y359361D01*
Y360345D01*
X332912Y361329D01*
X330945D01*
X329961Y360345D01*
X295961Y340345D02*
X296945Y341329D01*
X298912D01*
X299896Y340345D01*
Y339361D01*
X298912Y338377D01*
X297929D01*
X298912D01*
X299896Y337393D01*
Y336409D01*
X298912Y335425D01*
X296945D01*
X295961Y336409D01*
X333661Y335433D02*
Y341337D01*
X330709Y338385D01*
X334644D01*
X270668Y335433D02*
Y341337D01*
X267717Y338385D01*
X271652D01*
X232968Y340345D02*
X233952Y341329D01*
X235920D01*
X236904Y340345D01*
Y339361D01*
X235920Y338377D01*
X234936D01*
X235920D01*
X236904Y337393D01*
Y336409D01*
X235920Y335425D01*
X233952D01*
X232968Y336409D01*
X270904Y355425D02*
X266968D01*
X270904Y359361D01*
Y360345D01*
X269920Y361329D01*
X267952D01*
X266968Y360345D01*
X234252Y355512D02*
X236220D01*
X235236D01*
Y361415D01*
X234252Y360432D01*
X171260Y355512D02*
X173228D01*
X172244D01*
Y361415D01*
X171260Y360432D01*
X207912Y355425D02*
X203976D01*
X207912Y359361D01*
Y360345D01*
X206928Y361329D01*
X204960D01*
X203976Y360345D01*
X169976Y340345D02*
X170960Y341329D01*
X172928D01*
X173912Y340345D01*
Y339361D01*
X172928Y338377D01*
X171944D01*
X172928D01*
X173912Y337393D01*
Y336409D01*
X172928Y335425D01*
X170960D01*
X169976Y336409D01*
X207676Y335433D02*
Y341337D01*
X204724Y338385D01*
X208660D01*
X144684Y335433D02*
Y341337D01*
X141732Y338385D01*
X145668D01*
X106984Y340345D02*
X107968Y341329D01*
X109936D01*
X110920Y340345D01*
Y339361D01*
X109936Y338377D01*
X108952D01*
X109936D01*
X110920Y337393D01*
Y336409D01*
X109936Y335425D01*
X107968D01*
X106984Y336409D01*
X144920Y355425D02*
X140984D01*
X144920Y359361D01*
Y360345D01*
X143936Y361329D01*
X141968D01*
X140984Y360345D01*
X108268Y355512D02*
X110236D01*
X109252D01*
Y361415D01*
X108268Y360432D01*
X45276Y355512D02*
X47243D01*
X46259D01*
Y361415D01*
X45276Y360432D01*
X81928Y355425D02*
X77992D01*
X81928Y359361D01*
Y360345D01*
X80944Y361329D01*
X78976D01*
X77992Y360345D01*
X43992Y340345D02*
X44976Y341329D01*
X46944D01*
X47928Y340345D01*
Y339361D01*
X46944Y338377D01*
X45960D01*
X46944D01*
X47928Y337393D01*
Y336409D01*
X46944Y335425D01*
X44976D01*
X43992Y336409D01*
X81692Y335433D02*
Y341337D01*
X78740Y338385D01*
X82676D01*
X81692Y20472D02*
Y26376D01*
X78740Y23424D01*
X82676D01*
X43992Y25384D02*
X44976Y26368D01*
X46944D01*
X47928Y25384D01*
Y24400D01*
X46944Y23416D01*
X45960D01*
X46944D01*
X47928Y22432D01*
Y21449D01*
X46944Y20465D01*
X44976D01*
X43992Y21449D01*
X81928Y40465D02*
X77992D01*
X81928Y44400D01*
Y45384D01*
X80944Y46368D01*
X78976D01*
X77992Y45384D01*
X45276Y40551D02*
X47243D01*
X46259D01*
Y46455D01*
X45276Y45471D01*
X108268Y40551D02*
X110236D01*
X109252D01*
Y46455D01*
X108268Y45471D01*
X144920Y40465D02*
X140984D01*
X144920Y44400D01*
Y45384D01*
X143936Y46368D01*
X141968D01*
X140984Y45384D01*
X106984Y25384D02*
X107968Y26368D01*
X109936D01*
X110920Y25384D01*
Y24400D01*
X109936Y23416D01*
X108952D01*
X109936D01*
X110920Y22432D01*
Y21449D01*
X109936Y20465D01*
X107968D01*
X106984Y21449D01*
X144684Y20472D02*
Y26376D01*
X141732Y23424D01*
X145668D01*
X207676Y20472D02*
Y26376D01*
X204724Y23424D01*
X208660D01*
X169976Y25384D02*
X170960Y26368D01*
X172928D01*
X173912Y25384D01*
Y24400D01*
X172928Y23416D01*
X171944D01*
X172928D01*
X173912Y22432D01*
Y21449D01*
X172928Y20465D01*
X170960D01*
X169976Y21449D01*
X207912Y40465D02*
X203976D01*
X207912Y44400D01*
Y45384D01*
X206928Y46368D01*
X204960D01*
X203976Y45384D01*
X171260Y40551D02*
X173228D01*
X172244D01*
Y46455D01*
X171260Y45471D01*
X234252Y40551D02*
X236220D01*
X235236D01*
Y46455D01*
X234252Y45471D01*
X270904Y40465D02*
X266968D01*
X270904Y44400D01*
Y45384D01*
X269920Y46368D01*
X267952D01*
X266968Y45384D01*
X232968Y25384D02*
X233952Y26368D01*
X235920D01*
X236904Y25384D01*
Y24400D01*
X235920Y23416D01*
X234936D01*
X235920D01*
X236904Y22432D01*
Y21449D01*
X235920Y20465D01*
X233952D01*
X232968Y21449D01*
X270668Y20472D02*
Y26376D01*
X267717Y23424D01*
X271652D01*
X333661Y20472D02*
Y26376D01*
X330709Y23424D01*
X334644D01*
X295961Y25384D02*
X296945Y26368D01*
X298912D01*
X299896Y25384D01*
Y24400D01*
X298912Y23416D01*
X297929D01*
X298912D01*
X299896Y22432D01*
Y21449D01*
X298912Y20465D01*
X296945D01*
X295961Y21449D01*
X333896Y40465D02*
X329961D01*
X333896Y44400D01*
Y45384D01*
X332912Y46368D01*
X330945D01*
X329961Y45384D01*
X297244Y40551D02*
X299212D01*
X298228D01*
Y46455D01*
X297244Y45471D01*
X45276Y103543D02*
X47243D01*
X46259D01*
Y109447D01*
X45276Y108463D01*
X81928Y103457D02*
X77992D01*
X81928Y107392D01*
Y108376D01*
X80944Y109360D01*
X78976D01*
X77992Y108376D01*
X43992Y88376D02*
X44976Y89360D01*
X46944D01*
X47928Y88376D01*
Y87392D01*
X46944Y86409D01*
X45960D01*
X46944D01*
X47928Y85425D01*
Y84441D01*
X46944Y83457D01*
X44976D01*
X43992Y84441D01*
X81692Y83465D02*
Y89368D01*
X78740Y86416D01*
X82676D01*
X144684Y83465D02*
Y89368D01*
X141732Y86416D01*
X145668D01*
X106984Y88376D02*
X107968Y89360D01*
X109936D01*
X110920Y88376D01*
Y87392D01*
X109936Y86409D01*
X108952D01*
X109936D01*
X110920Y85425D01*
Y84441D01*
X109936Y83457D01*
X107968D01*
X106984Y84441D01*
X144920Y103457D02*
X140984D01*
X144920Y107392D01*
Y108376D01*
X143936Y109360D01*
X141968D01*
X140984Y108376D01*
X108268Y103543D02*
X110236D01*
X109252D01*
Y109447D01*
X108268Y108463D01*
X171260Y103543D02*
X173228D01*
X172244D01*
Y109447D01*
X171260Y108463D01*
X207912Y103457D02*
X203976D01*
X207912Y107392D01*
Y108376D01*
X206928Y109360D01*
X204960D01*
X203976Y108376D01*
X169976Y88376D02*
X170960Y89360D01*
X172928D01*
X173912Y88376D01*
Y87392D01*
X172928Y86409D01*
X171944D01*
X172928D01*
X173912Y85425D01*
Y84441D01*
X172928Y83457D01*
X170960D01*
X169976Y84441D01*
X207676Y83465D02*
Y89368D01*
X204724Y86416D01*
X208660D01*
X270668Y83465D02*
Y89368D01*
X267717Y86416D01*
X271652D01*
X232968Y88376D02*
X233952Y89360D01*
X235920D01*
X236904Y88376D01*
Y87392D01*
X235920Y86409D01*
X234936D01*
X235920D01*
X236904Y85425D01*
Y84441D01*
X235920Y83457D01*
X233952D01*
X232968Y84441D01*
X270904Y103457D02*
X266968D01*
X270904Y107392D01*
Y108376D01*
X269920Y109360D01*
X267952D01*
X266968Y108376D01*
X234252Y103543D02*
X236220D01*
X235236D01*
Y109447D01*
X234252Y108463D01*
X297244Y103543D02*
X299212D01*
X298228D01*
Y109447D01*
X297244Y108463D01*
X333896Y103457D02*
X329961D01*
X333896Y107392D01*
Y108376D01*
X332912Y109360D01*
X330945D01*
X329961Y108376D01*
X295961Y88376D02*
X296945Y89360D01*
X298912D01*
X299896Y88376D01*
Y87392D01*
X298912Y86409D01*
X297929D01*
X298912D01*
X299896Y85425D01*
Y84441D01*
X298912Y83457D01*
X296945D01*
X295961Y84441D01*
X333661Y83465D02*
Y89368D01*
X330709Y86416D01*
X334644D01*
X81692Y146457D02*
Y152360D01*
X78740Y149408D01*
X82676D01*
X43992Y151368D02*
X44976Y152352D01*
X46944D01*
X47928Y151368D01*
Y150384D01*
X46944Y149401D01*
X45960D01*
X46944D01*
X47928Y148417D01*
Y147433D01*
X46944Y146449D01*
X44976D01*
X43992Y147433D01*
X81928Y166449D02*
X77992D01*
X81928Y170385D01*
Y171369D01*
X80944Y172352D01*
X78976D01*
X77992Y171369D01*
X45276Y166535D02*
X47243D01*
X46259D01*
Y172439D01*
X45276Y171455D01*
X108268Y166535D02*
X110236D01*
X109252D01*
Y172439D01*
X108268Y171455D01*
X144920Y166449D02*
X140984D01*
X144920Y170385D01*
Y171369D01*
X143936Y172352D01*
X141968D01*
X140984Y171369D01*
X106984Y151368D02*
X107968Y152352D01*
X109936D01*
X110920Y151368D01*
Y150384D01*
X109936Y149401D01*
X108952D01*
X109936D01*
X110920Y148417D01*
Y147433D01*
X109936Y146449D01*
X107968D01*
X106984Y147433D01*
X144684Y146457D02*
Y152360D01*
X141732Y149408D01*
X145668D01*
X207676Y146457D02*
Y152360D01*
X204724Y149408D01*
X208660D01*
X169976Y151368D02*
X170960Y152352D01*
X172928D01*
X173912Y151368D01*
Y150384D01*
X172928Y149401D01*
X171944D01*
X172928D01*
X173912Y148417D01*
Y147433D01*
X172928Y146449D01*
X170960D01*
X169976Y147433D01*
X207912Y166449D02*
X203976D01*
X207912Y170385D01*
Y171369D01*
X206928Y172352D01*
X204960D01*
X203976Y171369D01*
X171260Y166535D02*
X173228D01*
X172244D01*
Y172439D01*
X171260Y171455D01*
X234252Y166535D02*
X236220D01*
X235236D01*
Y172439D01*
X234252Y171455D01*
X270904Y166449D02*
X266968D01*
X270904Y170385D01*
Y171369D01*
X269920Y172352D01*
X267952D01*
X266968Y171369D01*
X232968Y151368D02*
X233952Y152352D01*
X235920D01*
X236904Y151368D01*
Y150384D01*
X235920Y149401D01*
X234936D01*
X235920D01*
X236904Y148417D01*
Y147433D01*
X235920Y146449D01*
X233952D01*
X232968Y147433D01*
X270668Y146457D02*
Y152360D01*
X267717Y149408D01*
X271652D01*
X333661Y146457D02*
Y152360D01*
X330709Y149408D01*
X334644D01*
X295961Y151368D02*
X296945Y152352D01*
X298912D01*
X299896Y151368D01*
Y150384D01*
X298912Y149401D01*
X297929D01*
X298912D01*
X299896Y148417D01*
Y147433D01*
X298912Y146449D01*
X296945D01*
X295961Y147433D01*
X333896Y166449D02*
X329961D01*
X333896Y170385D01*
Y171369D01*
X332912Y172352D01*
X330945D01*
X329961Y171369D01*
X297244Y166535D02*
X299212D01*
X298228D01*
Y172439D01*
X297244Y171455D01*
X45276Y229528D02*
X47243D01*
X46259D01*
Y235431D01*
X45276Y234447D01*
X81928Y229441D02*
X77992D01*
X81928Y233377D01*
Y234361D01*
X80944Y235345D01*
X78976D01*
X77992Y234361D01*
X43992Y214361D02*
X44976Y215345D01*
X46944D01*
X47928Y214361D01*
Y213377D01*
X46944Y212393D01*
X45960D01*
X46944D01*
X47928Y211409D01*
Y210425D01*
X46944Y209441D01*
X44976D01*
X43992Y210425D01*
X81692Y209449D02*
Y215352D01*
X78740Y212401D01*
X82676D01*
X144684Y209449D02*
Y215352D01*
X141732Y212401D01*
X145668D01*
X106984Y214361D02*
X107968Y215345D01*
X109936D01*
X110920Y214361D01*
Y213377D01*
X109936Y212393D01*
X108952D01*
X109936D01*
X110920Y211409D01*
Y210425D01*
X109936Y209441D01*
X107968D01*
X106984Y210425D01*
X144920Y229441D02*
X140984D01*
X144920Y233377D01*
Y234361D01*
X143936Y235345D01*
X141968D01*
X140984Y234361D01*
X108268Y229528D02*
X110236D01*
X109252D01*
Y235431D01*
X108268Y234447D01*
X171260Y229528D02*
X173228D01*
X172244D01*
Y235431D01*
X171260Y234447D01*
X207912Y229441D02*
X203976D01*
X207912Y233377D01*
Y234361D01*
X206928Y235345D01*
X204960D01*
X203976Y234361D01*
X169976Y214361D02*
X170960Y215345D01*
X172928D01*
X173912Y214361D01*
Y213377D01*
X172928Y212393D01*
X171944D01*
X172928D01*
X173912Y211409D01*
Y210425D01*
X172928Y209441D01*
X170960D01*
X169976Y210425D01*
X207676Y209449D02*
Y215352D01*
X204724Y212401D01*
X208660D01*
X270668Y209449D02*
Y215352D01*
X267717Y212401D01*
X271652D01*
X232968Y214361D02*
X233952Y215345D01*
X235920D01*
X236904Y214361D01*
Y213377D01*
X235920Y212393D01*
X234936D01*
X235920D01*
X236904Y211409D01*
Y210425D01*
X235920Y209441D01*
X233952D01*
X232968Y210425D01*
X270904Y229441D02*
X266968D01*
X270904Y233377D01*
Y234361D01*
X269920Y235345D01*
X267952D01*
X266968Y234361D01*
X234252Y229528D02*
X236220D01*
X235236D01*
Y235431D01*
X234252Y234447D01*
X297244Y229528D02*
X299212D01*
X298228D01*
Y235431D01*
X297244Y234447D01*
X333896Y229441D02*
X329961D01*
X333896Y233377D01*
Y234361D01*
X332912Y235345D01*
X330945D01*
X329961Y234361D01*
X295961Y214361D02*
X296945Y215345D01*
X298912D01*
X299896Y214361D01*
Y213377D01*
X298912Y212393D01*
X297929D01*
X298912D01*
X299896Y211409D01*
Y210425D01*
X298912Y209441D01*
X296945D01*
X295961Y210425D01*
X333661Y209449D02*
Y215352D01*
X330709Y212401D01*
X334644D01*
X81692Y272441D02*
Y278344D01*
X78740Y275393D01*
X82676D01*
X43992Y277353D02*
X44976Y278337D01*
X46944D01*
X47928Y277353D01*
Y276369D01*
X46944Y275385D01*
X45960D01*
X46944D01*
X47928Y274401D01*
Y273417D01*
X46944Y272433D01*
X44976D01*
X43992Y273417D01*
X81928Y292433D02*
X77992D01*
X81928Y296369D01*
Y297353D01*
X80944Y298337D01*
X78976D01*
X77992Y297353D01*
X45276Y292520D02*
X47243D01*
X46259D01*
Y298423D01*
X45276Y297439D01*
X108268Y292520D02*
X110236D01*
X109252D01*
Y298423D01*
X108268Y297439D01*
X144920Y292433D02*
X140984D01*
X144920Y296369D01*
Y297353D01*
X143936Y298337D01*
X141968D01*
X140984Y297353D01*
X106984Y277353D02*
X107968Y278337D01*
X109936D01*
X110920Y277353D01*
Y276369D01*
X109936Y275385D01*
X108952D01*
X109936D01*
X110920Y274401D01*
Y273417D01*
X109936Y272433D01*
X107968D01*
X106984Y273417D01*
X144684Y272441D02*
Y278344D01*
X141732Y275393D01*
X145668D01*
X207676Y272441D02*
Y278344D01*
X204724Y275393D01*
X208660D01*
X169976Y277353D02*
X170960Y278337D01*
X172928D01*
X173912Y277353D01*
Y276369D01*
X172928Y275385D01*
X171944D01*
X172928D01*
X173912Y274401D01*
Y273417D01*
X172928Y272433D01*
X170960D01*
X169976Y273417D01*
X207912Y292433D02*
X203976D01*
X207912Y296369D01*
Y297353D01*
X206928Y298337D01*
X204960D01*
X203976Y297353D01*
X171260Y292520D02*
X173228D01*
X172244D01*
Y298423D01*
X171260Y297439D01*
X234252Y292520D02*
X236220D01*
X235236D01*
Y298423D01*
X234252Y297439D01*
X270904Y292433D02*
X266968D01*
X270904Y296369D01*
Y297353D01*
X269920Y298337D01*
X267952D01*
X266968Y297353D01*
X232968Y277353D02*
X233952Y278337D01*
X235920D01*
X236904Y277353D01*
Y276369D01*
X235920Y275385D01*
X234936D01*
X235920D01*
X236904Y274401D01*
Y273417D01*
X235920Y272433D01*
X233952D01*
X232968Y273417D01*
X270668Y272441D02*
Y278344D01*
X267717Y275393D01*
X271652D01*
X333661Y272441D02*
Y278344D01*
X330709Y275393D01*
X334644D01*
X295961Y277353D02*
X296945Y278337D01*
X298912D01*
X299896Y277353D01*
Y276369D01*
X298912Y275385D01*
X297929D01*
X298912D01*
X299896Y274401D01*
Y273417D01*
X298912Y272433D01*
X296945D01*
X295961Y273417D01*
X333896Y292433D02*
X329961D01*
X333896Y296369D01*
Y297353D01*
X332912Y298337D01*
X330945D01*
X329961Y297353D01*
X297244Y292520D02*
X299212D01*
X298228D01*
Y298423D01*
X297244Y297439D01*
D48*
X340552Y505314D02*
D03*
X110236Y398228D02*
D03*
M02*
