%FSLAX25Y25*%
%MOIN*%
G70*
G01*
G75*
G04 Layer_Physical_Order=1*
G04 Layer_Color=13311*
%ADD10C,0.01000*%
%ADD11C,0.02000*%
%ADD12C,0.04000*%
%ADD13C,0.02500*%
%ADD14C,0.00600*%
%ADD15C,0.11811*%
%ADD16C,0.06299*%
%ADD17C,0.05512*%
%ADD18C,0.06000*%
%ADD19O,0.10236X0.15748*%
%ADD20O,0.07874X0.06000*%
%ADD21C,0.19685*%
G04:AMPARAMS|DCode=22|XSize=47.24mil|YSize=80mil|CornerRadius=11.81mil|HoleSize=0mil|Usage=FLASHONLY|Rotation=0.000|XOffset=0mil|YOffset=0mil|HoleType=Round|Shape=RoundedRectangle|*
%AMROUNDEDRECTD22*
21,1,0.04724,0.05638,0,0,0.0*
21,1,0.02362,0.08000,0,0,0.0*
1,1,0.02362,0.01181,-0.02819*
1,1,0.02362,-0.01181,-0.02819*
1,1,0.02362,-0.01181,0.02819*
1,1,0.02362,0.01181,0.02819*
%
%ADD22ROUNDEDRECTD22*%
%ADD23C,0.04724*%
%ADD24O,0.06000X0.04724*%
%ADD25R,0.06000X0.04724*%
%ADD26C,0.05906*%
%ADD27R,0.05906X0.05906*%
%ADD28R,0.05315X0.05315*%
%ADD29C,0.05315*%
%ADD30R,0.05906X0.05906*%
%ADD31C,0.08000*%
%ADD32R,0.05315X0.05315*%
%ADD33R,0.05906X0.05906*%
%ADD34C,0.05906*%
%ADD35C,0.05000*%
%ADD36C,0.03000*%
D10*
X345744Y529256D02*
X350394Y524606D01*
X336171Y529256D02*
X345744D01*
X317717Y547710D02*
X336171Y529256D01*
X317717Y547710D02*
Y570079D01*
X301181Y586614D02*
X317717Y570079D01*
X337992Y524606D02*
X340551D01*
X314961Y547638D02*
X337992Y524606D01*
X314961Y547638D02*
Y568898D01*
X299244Y584614D02*
X314961Y568898D01*
X188976Y522646D02*
X200394Y511228D01*
Y471573D02*
Y511228D01*
X197480Y468660D02*
X200394Y471573D01*
X188976Y522646D02*
Y538386D01*
X153504Y558268D02*
Y558307D01*
X139764Y544528D02*
X153504Y558268D01*
X139764Y544528D02*
X145669Y538622D01*
Y481653D02*
Y538622D01*
Y481653D02*
X147008Y480315D01*
X121299Y538622D02*
X128937Y530984D01*
Y468263D02*
Y530984D01*
Y468263D02*
X137900Y459300D01*
X131571Y471829D02*
X138203Y465197D01*
X131571Y471829D02*
Y482159D01*
X131890Y482478D02*
Y538031D01*
X131571Y482159D02*
X131890Y482478D01*
X121299Y548622D02*
X131890Y538031D01*
X261811Y399606D02*
X269685Y407480D01*
Y470472D01*
X275590Y476378D01*
Y515748D01*
X268701Y522638D02*
X275590Y515748D01*
X268701Y522638D02*
Y533465D01*
X253504Y548661D02*
X268701Y533465D01*
X253504Y548661D02*
Y558307D01*
X350000Y212441D02*
X350394Y212835D01*
X340461Y212441D02*
X350000D01*
X166890Y395669D02*
X168307D01*
X148622Y413937D02*
X166890Y395669D01*
X148622Y413937D02*
Y433071D01*
X157480Y441929D01*
Y465197D01*
X168500Y369800D02*
Y389571D01*
X144685Y413386D02*
X168500Y389571D01*
X144685Y413386D02*
Y452756D01*
X151229Y459300D01*
X151575Y459646D01*
X137900Y459300D02*
X151229D01*
X125984Y428016D02*
Y495671D01*
X290461Y169449D02*
X300000Y178988D01*
Y381102D01*
X281496Y399606D02*
X300000Y381102D01*
X169291Y554094D02*
X173504Y558307D01*
X169291Y534449D02*
Y554094D01*
X177480Y431080D02*
X180400Y434000D01*
X177480Y425197D02*
Y431080D01*
X183504Y517520D02*
X195866Y505158D01*
X183504Y517520D02*
Y528307D01*
X197480Y465197D02*
Y468660D01*
X163504Y528307D02*
X166339Y525472D01*
Y480984D02*
Y525472D01*
Y480984D02*
X167008Y480315D01*
X181102Y475394D02*
Y505153D01*
X184400Y429500D02*
Y461269D01*
X181102Y475394D02*
X182585Y473911D01*
Y463084D02*
Y473911D01*
Y463084D02*
X184400Y461269D01*
X178500Y507756D02*
X181102Y505153D01*
X167480Y465197D02*
Y465394D01*
X150591Y514980D02*
Y525393D01*
X153504Y528307D01*
X150591Y514980D02*
X150808Y515198D01*
X136024Y510787D02*
X139764Y514528D01*
X136024Y480315D02*
Y510787D01*
X123033Y498622D02*
X125984Y495671D01*
X204725Y505157D02*
Y514764D01*
X193504Y525984D02*
X204725Y514764D01*
X193504Y525984D02*
Y528307D01*
X167323Y465040D02*
X167480Y465197D01*
X167323Y449803D02*
Y465040D01*
X204725Y475157D02*
X207480Y472402D01*
Y465197D02*
Y472402D01*
X203504Y528307D02*
X209646Y522165D01*
Y496254D02*
Y522165D01*
Y496254D02*
X233800Y472100D01*
X213504Y511811D02*
Y528307D01*
Y511811D02*
X214567Y510748D01*
Y505157D02*
Y510748D01*
X156500Y413200D02*
Y425197D01*
X268000Y190945D02*
X268200Y191145D01*
X84646Y482283D02*
X100394Y466535D01*
X89173Y498622D02*
X91299D01*
X84646Y494095D02*
X89173Y498622D01*
X84646Y482283D02*
Y494095D01*
X100394Y375984D02*
Y466535D01*
X88492Y364083D02*
X100394Y375984D01*
X88492Y358425D02*
Y364083D01*
X121299Y375236D02*
Y488622D01*
X104488Y358425D02*
X121299Y375236D01*
X101484Y358425D02*
X104488D01*
X121299Y498622D02*
X123033D01*
X30900Y445100D02*
Y490158D01*
X30866D02*
X30900D01*
X24370Y496654D02*
X30866Y490158D01*
X223504Y579803D02*
X230315Y586614D01*
X223504Y558307D02*
Y579803D01*
X230315Y586614D02*
X301181D01*
X234220Y584614D02*
X299244D01*
X228126Y571304D02*
X228346Y571084D01*
X228126Y578520D02*
X234220Y584614D01*
X228126Y571304D02*
Y578520D01*
X228346Y555118D02*
Y571084D01*
X226378Y553150D02*
X228346Y555118D01*
X218661Y553150D02*
X226378D01*
X213504Y558307D02*
X218661Y553150D01*
X340461Y43465D02*
Y62900D01*
X336500Y66861D02*
X340461Y62900D01*
X336500Y66861D02*
Y94500D01*
X340461Y98461D01*
Y106457D01*
X290461D02*
Y125900D01*
X286500Y129861D02*
X290461Y125900D01*
X286500Y129861D02*
Y157500D01*
X290461Y161461D01*
Y169449D01*
X233504Y558307D02*
Y565900D01*
X232284Y567120D02*
X233504Y565900D01*
X232284Y567120D02*
Y574803D01*
X288622Y413386D02*
Y418500D01*
X290031Y419909D01*
Y425197D01*
X248032Y496220D02*
Y503900D01*
X248189Y504057D01*
Y511811D01*
X228346Y496220D02*
Y503900D01*
X228189Y504057D02*
X228346Y503900D01*
X228189Y504057D02*
Y511811D01*
X277469Y98500D02*
Y106457D01*
X273200Y94231D02*
X277469Y98500D01*
X273200Y67000D02*
Y94231D01*
Y67000D02*
X277469Y62731D01*
Y43465D02*
Y62731D01*
Y106457D02*
Y125800D01*
X273200Y130069D02*
X277469Y125800D01*
X273200Y130069D02*
Y157300D01*
X277469Y161569D01*
Y169449D01*
X214476Y98500D02*
Y106457D01*
X210200Y94224D02*
X214476Y98500D01*
X210200Y67000D02*
Y94224D01*
Y67000D02*
X214476Y62724D01*
Y43465D02*
Y62724D01*
Y106457D02*
Y125800D01*
X210200Y130076D02*
X214476Y125800D01*
X210200Y130076D02*
Y157300D01*
X214476Y161576D01*
Y169449D01*
X151484Y43465D02*
Y62800D01*
X147200Y67084D02*
X151484Y62800D01*
X147200Y67084D02*
Y94300D01*
X151484Y98584D01*
Y106457D01*
Y350500D02*
Y358425D01*
X147200Y346216D02*
X151484Y350500D01*
X147200Y319000D02*
Y346216D01*
Y319000D02*
X151484Y314716D01*
Y295433D02*
Y314716D01*
X88492Y287500D02*
Y295433D01*
X84200Y283208D02*
X88492Y287500D01*
X84200Y256000D02*
Y283208D01*
Y256000D02*
X88492Y251708D01*
Y232441D02*
Y251708D01*
Y295433D02*
Y314700D01*
X84200Y318992D02*
X88492Y314700D01*
X84200Y318992D02*
Y346200D01*
X88492Y350492D01*
Y358425D01*
X340461Y256100D02*
Y275433D01*
Y256100D02*
X344800Y251761D01*
Y224600D02*
Y251761D01*
X340461Y220261D02*
X344800Y224600D01*
X340461Y212441D02*
Y220261D01*
X227469Y275433D02*
Y283200D01*
X231800Y287531D01*
Y314700D01*
X227469Y319031D02*
X231800Y314700D01*
X227469Y319031D02*
Y338425D01*
X214476Y256000D02*
Y275433D01*
Y256000D02*
X218800Y251676D01*
Y224600D02*
Y251676D01*
X214476Y220276D02*
X218800Y224600D01*
X214476Y212441D02*
Y220276D01*
Y275433D02*
Y283200D01*
X218800Y287524D01*
Y314700D01*
X214476Y319024D02*
X218800Y314700D01*
X214476Y319024D02*
Y338425D01*
X164476Y193100D02*
Y212441D01*
Y193100D02*
X168800Y188776D01*
Y161600D02*
Y188776D01*
X164476Y157276D02*
X168800Y161600D01*
X164476Y149449D02*
Y157276D01*
X151484Y86457D02*
Y94200D01*
X155800Y98516D01*
Y125700D01*
X151484Y130016D02*
X155800Y125700D01*
X151484Y130016D02*
Y149449D01*
Y157200D01*
X155800Y161516D01*
Y188700D01*
X151484Y193016D02*
X155800Y188700D01*
X151484Y193016D02*
Y212441D01*
X88492Y23465D02*
Y31300D01*
X92800Y35608D01*
Y62800D01*
X88492Y67108D02*
X92800Y62800D01*
X88492Y67108D02*
Y86457D01*
Y94300D01*
X92800Y98608D01*
Y125700D01*
X88492Y130008D02*
X92800Y125700D01*
X88492Y130008D02*
Y149449D01*
X163504Y558307D02*
Y568500D01*
X163543Y568539D01*
Y578740D01*
X24370Y526654D02*
Y536654D01*
X91299Y528622D02*
Y538622D01*
X214476Y232441D02*
Y244300D01*
X210500Y248276D02*
X214476Y244300D01*
X207480Y425197D02*
X210500D01*
X101484Y286884D02*
Y295433D01*
X95000Y280400D02*
X101484Y286884D01*
X95000Y228000D02*
Y280400D01*
X84500Y217500D02*
X95000Y228000D01*
X84500Y182400D02*
Y217500D01*
Y182400D02*
X88492Y178408D01*
Y169449D02*
Y178408D01*
Y149449D02*
Y157200D01*
X92800Y161508D01*
Y190893D01*
X88492Y195200D02*
X92800Y190893D01*
X88492Y195200D02*
Y212441D01*
X151484Y232441D02*
Y239700D01*
X145534Y245650D02*
X151484Y239700D01*
X145534Y245650D02*
Y280467D01*
X155500Y290433D01*
Y343400D01*
X164476Y352376D01*
Y358425D01*
X223504Y491063D02*
Y528307D01*
Y491063D02*
X228346Y486220D01*
X277469Y232441D02*
Y233739D01*
X281500Y237770D01*
Y374500D01*
X275500Y380500D02*
X281500Y374500D01*
X275500Y380500D02*
Y459000D01*
X278700Y462200D01*
Y465197D02*
X280031D01*
X151484Y275433D02*
Y277000D01*
X156584Y282100D01*
X168000D01*
X172500Y286600D01*
Y479000D01*
X173815Y480315D01*
X177008D01*
X227469Y295433D02*
Y302600D01*
X221900Y308169D02*
X227469Y302600D01*
X221900Y308169D02*
Y340976D01*
X214476Y348400D02*
X221900Y340976D01*
X214476Y348400D02*
Y358425D01*
X305118Y481063D02*
X314600Y471581D01*
Y443700D02*
Y471581D01*
Y443700D02*
X320100Y438200D01*
X320031Y425197D02*
X320100D01*
X62000Y465197D02*
X65433D01*
X54370Y496654D02*
X62000Y489024D01*
X36400Y488684D02*
X54370Y506654D01*
X35433Y465197D02*
X36400D01*
X323200Y473800D02*
X340600D01*
X344500Y469900D01*
Y298000D02*
Y469900D01*
X343500Y297000D02*
X344500Y298000D01*
X340461Y295433D02*
Y297000D01*
X164476Y358425D02*
Y389524D01*
X138203Y465197D02*
X157480D01*
X263504Y558307D02*
X278000Y543811D01*
Y470900D02*
Y543811D01*
X273500Y466400D02*
X278000Y470900D01*
X273500Y350969D02*
Y466400D01*
Y350969D02*
X277469Y347000D01*
Y338425D02*
Y347000D01*
X166500Y425197D02*
X167480D01*
X258622Y413386D02*
X266100Y420864D01*
Y525711D01*
X263504Y528307D02*
X266100Y525711D01*
X261811Y423589D02*
Y481063D01*
Y423589D02*
X262100Y423300D01*
X294000Y485400D02*
X310900D01*
X292900Y484300D02*
X294000Y485400D01*
X292900Y470797D02*
Y484300D01*
Y470797D02*
X298500Y465197D01*
X300031D01*
X218800Y514700D02*
X219100Y514400D01*
X218800Y514700D02*
Y533011D01*
X193504Y558307D02*
X218800Y533011D01*
X293500Y522681D02*
X305118Y511063D01*
X293500Y522681D02*
Y579000D01*
X293400Y579100D02*
X293500Y579000D01*
X242600Y579100D02*
X293400D01*
X238000Y574500D02*
X242600Y579100D01*
X223504Y528307D02*
X243504Y548307D01*
Y558307D01*
X303150Y545276D02*
X316772Y531654D01*
Y501968D02*
Y531654D01*
X203900Y425197D02*
X207480D01*
X200003Y421300D02*
X203900Y425197D01*
X184000Y421300D02*
X200003D01*
X182900Y422400D02*
X184000Y421300D01*
X182900Y422400D02*
Y428000D01*
X184400Y429500D01*
X178500Y507756D02*
Y574700D01*
X169000Y584200D02*
X178500Y574700D01*
X121000Y584200D02*
X169000D01*
X116800Y580000D02*
X121000Y584200D01*
X116800Y523121D02*
Y580000D01*
Y523121D02*
X121299Y518622D01*
X151484Y212441D02*
Y220200D01*
X157434Y226150D01*
Y258193D01*
X151484Y264143D02*
X157434Y258193D01*
X151484Y264143D02*
Y275433D01*
X156500Y425197D02*
X157480D01*
X253504Y519370D02*
X261811Y511063D01*
X253504Y519370D02*
Y528307D01*
X212598Y475157D02*
X217342Y470413D01*
Y457661D02*
Y470413D01*
X188100Y428419D02*
X217342Y457661D01*
X187480Y425197D02*
X188100D01*
X243504Y516496D02*
X248189Y511811D01*
X243504Y516496D02*
Y528307D01*
X228189Y511811D02*
X233504Y517126D01*
Y528307D01*
X30900Y445100D02*
X46900Y429100D01*
X78097D01*
X82000Y425197D01*
X85433D01*
X290461Y352761D02*
Y358425D01*
X285500Y347800D02*
X290461Y352761D01*
X285500Y206963D02*
Y347800D01*
X277469Y198932D02*
X285500Y206963D01*
X277469Y169449D02*
Y198932D01*
X101484Y164316D02*
Y169449D01*
X96900Y159732D02*
X101484Y164316D01*
X96900Y21100D02*
Y159732D01*
X92000Y16200D02*
X96900Y21100D01*
X86000Y16200D02*
X92000D01*
X84500Y17700D02*
X86000Y16200D01*
X84500Y17700D02*
Y34708D01*
X88492Y38700D01*
Y43465D01*
X164476Y291000D02*
Y295433D01*
X147534Y279467D02*
X159067Y291000D01*
X147534Y247666D02*
Y279467D01*
Y247666D02*
X155434Y239766D01*
Y227200D02*
Y239766D01*
X147500Y219266D02*
X155434Y227200D01*
X147500Y185284D02*
Y219266D01*
Y185284D02*
X151484Y181300D01*
Y169449D02*
Y181300D01*
X280031Y465197D02*
X282000D01*
X273504Y558307D02*
X290800Y541011D01*
Y511200D02*
Y541011D01*
Y511200D02*
X316800Y485200D01*
Y472600D02*
Y485200D01*
Y472600D02*
X320000Y469400D01*
X334600D01*
X336500Y467500D01*
Y158721D02*
Y467500D01*
Y158721D02*
X340461Y154761D01*
Y149449D02*
Y154761D01*
X173504Y483819D02*
X177008Y480315D01*
X173504Y483819D02*
Y528307D01*
X233800Y26000D02*
Y472100D01*
X231300Y23500D02*
X233800Y26000D01*
X227469Y23465D02*
Y23500D01*
X243504Y558307D02*
X251969Y566772D01*
Y574803D01*
X297244Y481063D02*
X305000Y473307D01*
Y447600D02*
Y473307D01*
X300031Y442631D02*
X305000Y447600D01*
X300031Y425197D02*
Y442631D01*
X283504Y572717D02*
X285591Y574803D01*
X283504Y558307D02*
Y572717D01*
X143543Y568268D02*
X153504Y558307D01*
X143543Y568268D02*
Y578740D01*
X320100Y425197D02*
Y438200D01*
X188100Y425197D02*
Y428419D01*
X36400Y465197D02*
Y488684D01*
X62000Y465197D02*
Y489024D01*
X340461Y297000D02*
X343500D01*
X210500Y248276D02*
Y425197D01*
X159067Y291000D02*
X164476D01*
X278700Y462200D02*
Y465197D01*
X282000D02*
Y504800D01*
X125984Y428016D02*
X164476Y389524D01*
X227469Y23500D02*
X231300D01*
X168071Y405512D02*
Y424606D01*
X167480Y425197D02*
X168071Y424606D01*
X166500Y425197D02*
Y438900D01*
X238189Y413386D02*
X258622D01*
X238189Y413386D02*
X238189Y413386D01*
X208300Y555479D02*
Y562200D01*
Y555479D02*
X214567Y549213D01*
X233268D01*
X238000Y553945D01*
Y574500D01*
X183504Y558307D02*
X190158Y564961D01*
X205539D01*
X208300Y562200D01*
D11*
X329134Y545866D02*
X340551Y534449D01*
X326378Y545866D02*
X329134D01*
X326772Y508468D02*
Y532283D01*
X303150Y572835D02*
X311024Y564961D01*
Y548032D02*
Y564961D01*
Y548032D02*
X326772Y532283D01*
D12*
X15748Y305118D02*
Y470472D01*
X9843Y299213D02*
X15748Y305118D01*
X9843Y25591D02*
Y299213D01*
X64000Y538205D02*
X72835Y529370D01*
X64000Y538205D02*
Y550173D01*
X57520Y556654D02*
X64000Y550173D01*
X54370Y556654D02*
X57520D01*
X72835Y549370D02*
X73583Y548622D01*
X91299D01*
X99016D01*
X100394Y547244D01*
Y492126D02*
Y547244D01*
X96890Y488622D02*
X100394Y492126D01*
X91299Y488622D02*
X96890D01*
X91299D02*
X110236Y469685D01*
Y405709D02*
Y469685D01*
X54370Y556654D02*
Y573583D01*
X51181Y576772D02*
X54370Y573583D01*
X19685Y576772D02*
X51181D01*
X7874Y564961D02*
X19685Y576772D01*
X7874Y478346D02*
Y564961D01*
Y478346D02*
X15748Y470472D01*
D13*
X15748Y538032D02*
X24370Y546654D01*
X15748Y495276D02*
X24370Y486654D01*
X15748Y495276D02*
Y538032D01*
D14*
X565Y633829D02*
X7230D01*
X3898D01*
Y623832D01*
X12228D02*
X15561D01*
X17227Y625498D01*
Y628831D01*
X15561Y630497D01*
X12228D01*
X10562Y628831D01*
Y625498D01*
X12228Y623832D01*
X20559Y620500D02*
Y630497D01*
X25557D01*
X27223Y628831D01*
Y625498D01*
X25557Y623832D01*
X20559D01*
X40552Y633829D02*
Y623832D01*
X47217D01*
X52215Y630497D02*
X55548D01*
X57214Y628831D01*
Y623832D01*
X52215D01*
X50549Y625498D01*
X52215Y627165D01*
X57214D01*
X60546Y630497D02*
Y625498D01*
X62212Y623832D01*
X67211D01*
Y622166D01*
X65544Y620500D01*
X63878D01*
X67211Y623832D02*
Y630497D01*
X75541Y623832D02*
X72209D01*
X70543Y625498D01*
Y628831D01*
X72209Y630497D01*
X75541D01*
X77207Y628831D01*
Y627165D01*
X70543D01*
X80540Y630497D02*
Y623832D01*
Y627165D01*
X82206Y628831D01*
X83872Y630497D01*
X85538D01*
D15*
X359055Y553228D02*
D03*
Y505827D02*
D03*
D16*
X350394Y534449D02*
D03*
Y524606D02*
D03*
X340551D02*
D03*
Y534449D02*
D03*
D17*
X301000Y406496D02*
D03*
X331000D02*
D03*
X350394Y212835D02*
D03*
Y182835D02*
D03*
X350000Y148858D02*
D03*
Y118858D02*
D03*
X204725Y475157D02*
D03*
Y505157D02*
D03*
X168071Y405512D02*
D03*
X198071D02*
D03*
X214567Y475157D02*
D03*
Y505157D02*
D03*
X305118Y481063D02*
D03*
Y511063D02*
D03*
X297244Y481063D02*
D03*
Y511063D02*
D03*
X261811Y481063D02*
D03*
Y511063D02*
D03*
X270622Y481063D02*
D03*
Y511063D02*
D03*
X139764Y544528D02*
D03*
Y514528D02*
D03*
X195866Y505158D02*
D03*
Y475157D02*
D03*
D18*
X281496Y399606D02*
D03*
X261811D02*
D03*
X242126D02*
D03*
X251969D02*
D03*
X281496Y389764D02*
D03*
X261811D02*
D03*
X251969D02*
D03*
X242126D02*
D03*
D19*
X45276Y393701D02*
D03*
X92520D02*
D03*
D20*
X57087D02*
D03*
X68898D02*
D03*
X80709D02*
D03*
D21*
X358268Y299213D02*
D03*
X9843D02*
D03*
Y25591D02*
D03*
X358268D02*
D03*
X9843Y576772D02*
D03*
X358268D02*
D03*
D22*
X290461Y275433D02*
D03*
X340461Y295433D02*
D03*
Y275433D02*
D03*
X290461Y295433D02*
D03*
X227469D02*
D03*
X277469Y275433D02*
D03*
Y295433D02*
D03*
X227469Y275433D02*
D03*
X164476D02*
D03*
X214476Y295433D02*
D03*
Y275433D02*
D03*
X164476Y295433D02*
D03*
X101484D02*
D03*
X151484Y275433D02*
D03*
Y295433D02*
D03*
X101484Y275433D02*
D03*
X38492D02*
D03*
X88492Y295433D02*
D03*
Y275433D02*
D03*
X38492Y295433D02*
D03*
X290461Y232441D02*
D03*
X340461Y212441D02*
D03*
Y232441D02*
D03*
X290461Y212441D02*
D03*
X227469D02*
D03*
X277469Y232441D02*
D03*
Y212441D02*
D03*
X227469Y232441D02*
D03*
X164476D02*
D03*
X214476Y212441D02*
D03*
Y232441D02*
D03*
X164476Y212441D02*
D03*
X101484D02*
D03*
X151484Y232441D02*
D03*
Y212441D02*
D03*
X101484Y232441D02*
D03*
X38492D02*
D03*
X88492Y212441D02*
D03*
Y232441D02*
D03*
X38492Y212441D02*
D03*
X290461Y149449D02*
D03*
X340461Y169449D02*
D03*
Y149449D02*
D03*
X290461Y169449D02*
D03*
X227469D02*
D03*
X277469Y149449D02*
D03*
Y169449D02*
D03*
X227469Y149449D02*
D03*
X164476D02*
D03*
X214476Y169449D02*
D03*
Y149449D02*
D03*
X164476Y169449D02*
D03*
X101484D02*
D03*
X151484Y149449D02*
D03*
Y169449D02*
D03*
X101484Y149449D02*
D03*
X38492D02*
D03*
X88492Y169449D02*
D03*
Y149449D02*
D03*
X38492Y169449D02*
D03*
X290461Y106457D02*
D03*
X340461Y86457D02*
D03*
Y106457D02*
D03*
X290461Y86457D02*
D03*
X227469D02*
D03*
X277469Y106457D02*
D03*
Y86457D02*
D03*
X227469Y106457D02*
D03*
X164476D02*
D03*
X214476Y86457D02*
D03*
Y106457D02*
D03*
X164476Y86457D02*
D03*
X101484D02*
D03*
X151484Y106457D02*
D03*
Y86457D02*
D03*
X101484Y106457D02*
D03*
X38492D02*
D03*
X88492Y86457D02*
D03*
Y106457D02*
D03*
X38492Y86457D02*
D03*
X290461Y23465D02*
D03*
X340461Y43465D02*
D03*
Y23465D02*
D03*
X290461Y43465D02*
D03*
X227469D02*
D03*
X277469Y23465D02*
D03*
Y43465D02*
D03*
X227469Y23465D02*
D03*
X164476D02*
D03*
X214476Y43465D02*
D03*
Y23465D02*
D03*
X164476Y43465D02*
D03*
X101484D02*
D03*
X151484Y23465D02*
D03*
Y43465D02*
D03*
X101484Y23465D02*
D03*
X38492D02*
D03*
X88492Y43465D02*
D03*
Y23465D02*
D03*
X38492Y43465D02*
D03*
Y358425D02*
D03*
X88492Y338425D02*
D03*
Y358425D02*
D03*
X38492Y338425D02*
D03*
X101484D02*
D03*
X151484Y358425D02*
D03*
Y338425D02*
D03*
X101484Y358425D02*
D03*
X164476D02*
D03*
X214476Y338425D02*
D03*
Y358425D02*
D03*
X164476Y338425D02*
D03*
X227469D02*
D03*
X277469Y358425D02*
D03*
Y338425D02*
D03*
X227469Y358425D02*
D03*
X290461D02*
D03*
X340461Y338425D02*
D03*
Y358425D02*
D03*
X290461Y338425D02*
D03*
D23*
X72835Y549370D02*
D03*
Y529370D02*
D03*
X228189Y511811D02*
D03*
X248189D02*
D03*
X285591Y574803D02*
D03*
X265591D02*
D03*
X143543Y578740D02*
D03*
X163543D02*
D03*
D24*
X330031Y465197D02*
D03*
X320031D02*
D03*
X310031D02*
D03*
X300031D02*
D03*
X290031D02*
D03*
X280031D02*
D03*
X330031Y425197D02*
D03*
X320031D02*
D03*
X310031D02*
D03*
X300031D02*
D03*
X290031D02*
D03*
X207480Y465197D02*
D03*
X197480D02*
D03*
X187480D02*
D03*
X177480D02*
D03*
X167480D02*
D03*
X157480D02*
D03*
X207480Y425197D02*
D03*
X197480D02*
D03*
X187480D02*
D03*
X177480D02*
D03*
X167480D02*
D03*
X85433Y465197D02*
D03*
X75433D02*
D03*
X65433D02*
D03*
X55433D02*
D03*
X45433D02*
D03*
X35433D02*
D03*
X85433Y425197D02*
D03*
X75433D02*
D03*
X65433D02*
D03*
X55433D02*
D03*
X45433D02*
D03*
D25*
X280031D02*
D03*
X157480D02*
D03*
X35433D02*
D03*
D26*
X283504Y558307D02*
D03*
X273504D02*
D03*
X263504D02*
D03*
X253504D02*
D03*
X243504D02*
D03*
X233504D02*
D03*
X223504D02*
D03*
X213504D02*
D03*
X203504D02*
D03*
X193504D02*
D03*
X183504D02*
D03*
X173504D02*
D03*
X163504D02*
D03*
X153504D02*
D03*
X283504Y528307D02*
D03*
X273504D02*
D03*
X263504D02*
D03*
X253504D02*
D03*
X243504D02*
D03*
X233504D02*
D03*
X223504D02*
D03*
X213504D02*
D03*
X203504D02*
D03*
X193504D02*
D03*
X183504D02*
D03*
X173504D02*
D03*
X163504D02*
D03*
X16000Y393701D02*
D03*
X110236Y377756D02*
D03*
X176024Y480315D02*
D03*
X166024D02*
D03*
X156024D02*
D03*
X146024D02*
D03*
X136024D02*
D03*
X248032Y496220D02*
D03*
X228346D02*
D03*
X326378Y545866D02*
D03*
D27*
X153504Y528307D02*
D03*
X110236Y405709D02*
D03*
X248032Y486220D02*
D03*
X228346D02*
D03*
X326378Y517913D02*
D03*
D28*
X232284Y574803D02*
D03*
D29*
X251969D02*
D03*
X303150Y545276D02*
D03*
Y553150D02*
D03*
D30*
X26000Y393701D02*
D03*
X186024Y480315D02*
D03*
D31*
X326772Y508468D02*
D03*
X316772Y501968D02*
D03*
X326772Y495468D02*
D03*
D32*
X303150Y525591D02*
D03*
Y572835D02*
D03*
D33*
X54370Y486654D02*
D03*
X121299Y488622D02*
D03*
D34*
X54370Y496654D02*
D03*
Y506654D02*
D03*
Y516654D02*
D03*
Y526654D02*
D03*
Y536654D02*
D03*
Y546654D02*
D03*
Y556654D02*
D03*
X24370Y486654D02*
D03*
Y496654D02*
D03*
Y506654D02*
D03*
Y516654D02*
D03*
Y526654D02*
D03*
Y536654D02*
D03*
Y546654D02*
D03*
Y556654D02*
D03*
X121299Y498622D02*
D03*
Y508622D02*
D03*
Y518622D02*
D03*
Y528622D02*
D03*
Y538622D02*
D03*
Y548622D02*
D03*
Y558622D02*
D03*
X91299Y488622D02*
D03*
Y498622D02*
D03*
Y508622D02*
D03*
Y518622D02*
D03*
Y528622D02*
D03*
Y538622D02*
D03*
Y548622D02*
D03*
Y558622D02*
D03*
D35*
X168307Y395669D02*
D03*
X126233Y444249D02*
D03*
X188976Y538386D02*
D03*
X169291Y534449D02*
D03*
X151575Y459646D02*
D03*
X150808Y515198D02*
D03*
X167323Y449803D02*
D03*
X268000Y190945D02*
D03*
X288622Y413386D02*
D03*
X323200Y473800D02*
D03*
X180400Y434000D02*
D03*
X166500Y438900D02*
D03*
X168500Y369800D02*
D03*
X262100Y423300D02*
D03*
X310900Y485400D02*
D03*
X219100Y514400D02*
D03*
X156500Y413200D02*
D03*
X282000Y504800D02*
D03*
X238189Y413386D02*
D03*
D36*
X300031Y434400D02*
D03*
M02*
